<svg width="44" height="44" viewBox="0 0 44 44" fill="none" xmlns="http://www.w3.org/2000/svg">
<path fill-rule="evenodd" clip-rule="evenodd" d="M15.2504 2.04686C14.8418 2.84876 14.8418 3.89852 14.8418 5.99802V14.8423H5.99802C3.89852 14.8423 2.84876 14.8423 2.04686 15.2509C1.34148 15.6103 0.767997 16.1838 0.408591 16.8892C0 17.6911 0 18.7408 0 20.8403V22.5388C0 24.6383 0 25.688 0.408591 26.4899C0.767997 27.1953 1.34148 27.7688 2.04686 28.1282C2.84876 28.5368 3.89852 28.5368 5.99802 28.5368H14.8418V37.3805C14.8418 39.48 14.8418 40.5298 15.2504 41.3317C15.6098 42.0371 16.1833 42.6105 16.8887 42.9699C17.6906 43.3785 18.7403 43.3785 20.8398 43.3785H22.5383C24.6378 43.3785 25.6875 43.3785 26.4894 42.9699C27.1948 42.6105 27.7683 42.0371 28.1277 41.3317C28.5363 40.5298 28.5363 39.48 28.5363 37.3805V28.5368H37.3805C39.48 28.5368 40.5298 28.5368 41.3317 28.1282C42.0371 27.7688 42.6105 27.1953 42.9699 26.4899C43.3785 25.688 43.3785 24.6383 43.3785 22.5388V20.8403C43.3785 18.7408 43.3785 17.6911 42.9699 16.8892C42.6105 16.1838 42.0371 15.6103 41.3317 15.2509C40.5298 14.8423 39.48 14.8423 37.3805 14.8423H28.5363V5.99802C28.5363 3.89852 28.5363 2.84876 28.1277 2.04686C27.7683 1.34148 27.1948 0.767997 26.4894 0.408591C25.6875 0 24.6378 0 22.5383 0H20.8398C18.7403 0 17.6906 0 16.8887 0.408591C16.1833 0.767997 15.6098 1.34148 15.2504 2.04686Z" fill="url(#paint0_linear_525_7)"/>
<defs>
<linearGradient id="paint0_linear_525_7" x1="15.4158" y1="-9.3745e-08" x2="24.2139" y2="43.3785" gradientUnits="userSpaceOnUse">
<stop stop-color="#1EFAF7"/>
<stop offset="0.43419" stop-color="#0586EB"/>
<stop offset="0.918967" stop-color="#0028E2"/>
</linearGradient>
</defs>
</svg>
