<svg width="12" height="8" viewBox="0 0 12 8" fill="none" xmlns="http://www.w3.org/2000/svg">
<path d="M2.33086 0.669167C2.27538 0.61606 2.20996 0.57443 2.13836 0.546667C1.99634 0.488323 1.83705 0.488323 1.69503 0.546667C1.62342 0.57443 1.558 0.61606 1.50253 0.669167L0.33586 1.83583C0.226016 1.94568 0.164307 2.09466 0.164307 2.25C0.164307 2.40534 0.226016 2.55432 0.33586 2.66417C0.445704 2.77401 0.594684 2.83572 0.750027 2.83572C0.905369 2.83572 1.05435 2.77401 1.16419 2.66417L1.33336 2.48917V6.91667C1.33336 7.07138 1.39482 7.21975 1.50421 7.32915C1.61361 7.43854 1.76198 7.5 1.91669 7.5C2.0714 7.5 2.21978 7.43854 2.32917 7.32915C2.43857 7.21975 2.50003 7.07138 2.50003 6.91667V2.48917L2.66919 2.66417C2.72342 2.71884 2.78794 2.76224 2.85902 2.79185C2.93011 2.82147 3.00635 2.83672 3.08336 2.83672C3.16037 2.83672 3.23661 2.82147 3.3077 2.79185C3.37878 2.76224 3.4433 2.71884 3.49753 2.66417C3.5522 2.60994 3.5956 2.54542 3.62521 2.47434C3.65483 2.40325 3.67008 2.32701 3.67008 2.25C3.67008 2.17299 3.65483 2.09675 3.62521 2.02566C3.5956 1.95458 3.5522 1.89006 3.49753 1.83583L2.33086 0.669167ZM5.41669 1.66667H11.25C11.4047 1.66667 11.5531 1.60521 11.6625 1.49581C11.7719 1.38642 11.8334 1.23804 11.8334 1.08333C11.8334 0.928624 11.7719 0.780251 11.6625 0.670854C11.5531 0.561458 11.4047 0.5 11.25 0.5H5.41669C5.26198 0.5 5.11361 0.561458 5.00421 0.670854C4.89482 0.780251 4.83336 0.928624 4.83336 1.08333C4.83336 1.23804 4.89482 1.38642 5.00421 1.49581C5.11361 1.60521 5.26198 1.66667 5.41669 1.66667ZM11.25 6.33333H5.41669C5.26198 6.33333 5.11361 6.39479 5.00421 6.50419C4.89482 6.61358 4.83336 6.76196 4.83336 6.91667C4.83336 7.07138 4.89482 7.21975 5.00421 7.32915C5.11361 7.43854 5.26198 7.5 5.41669 7.5H11.25C11.4047 7.5 11.5531 7.43854 11.6625 7.32915C11.7719 7.21975 11.8334 7.07138 11.8334 6.91667C11.8334 6.76196 11.7719 6.61358 11.6625 6.50419C11.5531 6.39479 11.4047 6.33333 11.25 6.33333ZM11.25 3.41667H5.41669C5.26198 3.41667 5.11361 3.47812 5.00421 3.58752C4.89482 3.69692 4.83336 3.84529 4.83336 4C4.83336 4.15471 4.89482 4.30308 5.00421 4.41248C5.11361 4.52187 5.26198 4.58333 5.41669 4.58333H11.25C11.4047 4.58333 11.5531 4.52187 11.6625 4.41248C11.7719 4.30308 11.8334 4.15471 11.8334 4C11.8334 3.84529 11.7719 3.69692 11.6625 3.58752C11.5531 3.47812 11.4047 3.41667 11.25 3.41667Z" fill="#050B2B"/>
</svg>
